<?xml version="1.0" standalone="no"?>
<!DOCTYPE svg PUBLIC "-//W3C//DTD SVG 20010904//EN"
 "http://www.w3.org/TR/2001/REC-SVG-20010904/DTD/svg10.dtd">
<svg version="1.0" xmlns="http://www.w3.org/2000/svg"
 width="300.000000pt" height="300.000000pt" viewBox="0 0 300.000000 300.000000"
 preserveAspectRatio="xMidYMid meet">
<metadata>
Created by potrace 1.11, written by Peter Selinger 2001-2013
</metadata>
<g transform="translate(0.000000,300.000000) scale(0.100000,-0.100000)"
fill="#000000" stroke="none">
<path d="M749 2985 c-82 -26 -162 -113 -183 -200 -4 -16 -8 -112 -7 -212 0
-100 -3 -184 -7 -187 -4 -2 -127 -28 -274 -57 -148 -30 -268 -57 -268 -61 0
-5 3 -7 8 -6 4 1 25 -4 47 -11 56 -17 154 -42 190 -47 17 -2 50 -7 75 -11 60
-9 360 -9 435 0 116 14 151 19 268 43 143 29 444 116 532 154 11 4 63 25 115
45 144 55 395 169 590 267 168 85 173 87 130 47 -343 -311 -743 -543 -1231
-714 -57 -20 -111 -38 -119 -40 -8 -3 -53 -16 -100 -30 -47 -14 -152 -43 -235
-64 -145 -37 -150 -39 -153 -66 -3 -23 -1 -26 16 -20 11 3 31 8 44 10 109 20
351 83 523 135 228 70 543 196 773 310 304 150 693 400 936 604 l49 41 -63
-90 c-362 -516 -616 -973 -795 -1430 -35 -89 -88 -241 -102 -290 -1 -5 -12
-41 -23 -80 -24 -82 -67 -265 -75 -321 -4 -21 -10 -52 -14 -69 -10 -44 -8 -58
11 -61 20 -2 21 2 73 201 51 196 167 541 225 670 152 342 282 565 447 770 100
124 216 247 207 220 -4 -11 -12 -27 -18 -35 -6 -8 -16 -24 -22 -35 -6 -11 -24
-45 -41 -75 -109 -197 -208 -404 -281 -590 -33 -84 -109 -306 -116 -342 -3
-13 -12 -48 -20 -78 -8 -30 -17 -66 -20 -80 -2 -14 -11 -56 -19 -95 -8 -38
-20 -113 -27 -165 -6 -52 -13 -113 -16 -134 -8 -57 -7 -330 0 -406 12 -116 16
-143 38 -255 27 -143 33 -152 47 -74 6 35 13 73 15 84 2 11 21 103 40 205 20
102 40 192 45 200 7 12 40 15 187 16 193 0 234 8 294 52 47 35 57 47 88 112
l26 55 1 965 c0 531 -3 984 -7 1008 -16 92 -73 167 -156 205 l-47 22 -995 2
c-837 1 -1002 0 -1041 -12z"/>
<path d="M2390 2397 c-19 -18 -62 -55 -95 -82 -33 -28 -62 -52 -65 -55 -40
-44 -344 -269 -515 -383 -71 -48 -134 -91 -140 -95 -5 -4 -77 -47 -160 -96
-189 -110 -526 -277 -712 -351 -120 -48 -143 -61 -144 -79 -2 -86 1 -445 5
-462 17 -81 81 -161 159 -195 49 -21 64 -22 309 -24 l257 -1 61 151 c132 319
324 687 498 955 100 155 304 434 342 470 3 3 15 17 26 32 29 38 130 152 181
204 49 51 44 59 -7 11z"/>
</g>
</svg>
